<svg xmlns="http://www.w3.org/2000/svg" viewBox="0 0 37.513 21.403">
  <path fill="#3F3F3F" d="M34.53 7.29c-3.79 5.04-4.2 4.57-1.074 7.48 3.008 2.793 3.633 4.14 3.73 4.316 0 0 1.25 2.188-1.387 2.207l-5 .078c-1.08.22-2.5-.76-2.5-.76-1.88-1.29-3.64-4.63-5-4.2 0 0-1.41.45-1.37 3.46.02.65-.3 1-.3 1s-.353.37-1.036.43H18.35c-4.94.315-9.296-4.24-9.296-4.24S4.297 12.14.117 2.31c-.274-.645.02-.957.02-.957S.43.983 1.25.983L6.6.943c.508.077.86.35.86.35s.313.215.47.625C8.807 4.106 9.94 6.1 9.94 6.1c1.954 4.022 3.282 4.706 4.044 4.296 0 0 .996-.605.78-5.47C14.688 3.17 14.2 2.37 14.2 2.37c-.45-.605-1.29-.78-1.66-.84-.294-.04.194-.742.84-1.055.956-.47 2.655-.488 4.667-.47 1.582.02 2.03.118 2.637.255 1.855.45 1.23 2.168 1.23 6.31 0 1.327-.254 3.183.703 3.788.41.273 1.426.04 3.926-4.22 0 0 1.172-2.03 2.09-4.394.156-.43.488-.605.488-.605s.32-.18.75-.12l5.62-.04c1.7-.216 1.975.565 1.975.565.293.8-.625 2.676-2.93 5.742z"/>
</svg>
