<svg xmlns="http://www.w3.org/2000/svg" viewBox="0 0 30 30">
  <path fill="#3F3F3F" d="M22.5 30c-1.72 0-3.3-.586-4.57-1.563-.938.195-1.934.313-2.93.313-7.598 0-13.75-6.152-13.75-13.75 0-.996.117-1.992.313-2.93C.586 10.8 0 9.22 0 7.5 0 3.36 3.36 0 7.5 0c1.72 0 3.3.586 4.57 1.563.938-.196 1.934-.313 2.93-.313 7.598 0 13.75 6.152 13.75 13.75 0 .996-.117 1.993-.313 2.93C29.414 19.2 30 20.782 30 22.5c0 4.14-3.36 7.5-7.5 7.5zm-5.664-16.934l-2.03-.47c-1.485-.35-2.6-.604-2.6-1.737 0-1.037 1.095-1.506 2.814-1.506 3.066 0 3.125 2.246 5.02 2.246 1.27 0 2.03-.995 2.03-2.128 0-2.246-3.73-3.71-7.42-3.71-3.38 0-7.306 1.464-7.306 5.43 0 3.28 2.188 4.452 5.04 5.136l2.85.703c1.74.43 2.814.627 2.814 1.877 0 .996-1.113 1.758-2.832 1.758-3.613 0-3.81-3.008-5.898-3.008-1.367 0-1.973.977-1.973 2.05 0 2.403 3.672 4.356 8.066 4.356 3.674 0 7.5-1.836 7.5-5.8 0-3.4-3.3-4.57-6.073-5.196z"/>
</svg>
