<svg xmlns="http://www.w3.org/2000/svg" viewBox="0 0 30 29.263">
  <path fill="#2B2B2B" d="M19.746 29.238c-.762.137-1.016-.332-1.016-.723v-4.12c0-1.407-.47-2.306-1.016-2.774 3.34-.37 6.855-1.64 6.855-7.4 0-1.64-.59-2.99-1.55-4.02.154-.39.662-1.91-.158-3.98-1.25-.39-4.12 1.543-4.12 1.543-1.19-.333-2.48-.51-3.75-.51s-2.56.177-3.75.51c0 0-2.87-1.935-4.14-1.544-.803 2.07-.295 3.594-.14 3.984-.955 1.035-1.54 2.383-1.54 4.024 0 5.74 3.495 7.03 6.835 7.4-.43.393-.82 1.037-.957 2.014-.86.39-3.047 1.056-4.355-1.25-.82-1.425-2.306-1.542-2.306-1.542-1.467-.02-.1.92-.1.92.98.45 1.66 2.187 1.66 2.187.88 2.68 5.06 1.78 5.06 1.78 0 1.25.02 2.44.02 2.793 0 .39-.274.86-1.036.724C4.294 27.242 0 21.62 0 15 0 6.72 6.72 0 15 0s15 6.72 15 15c0 6.62-4.297 12.246-10.254 14.238z"/>
</svg>
